<svg xmlns="http://www.w3.org/2000/svg" xmlns:xlink="http://www.w3.org/1999/xlink" width="155" height="35" viewBox="0 0 155 35">
    <defs>
        <path id="a" d="M0 .132h33.731v34.441H0z"/>
        <path id="c" d="M0 34.868h154.924V.427H0z"/>
    </defs>
    <g fill="none" fill-rule="evenodd">
        <path d="M-98-44h1366v5146H-98z"/>
        <g>
            <g transform="translate(0 .295)">
                <mask id="b" fill="#fff">
                    <use xlink:href="#a"/>
                </mask>
                <path fill="#1B1B1B" d="M1.334 15.302c.737 0 1.334.609 1.334 1.36 0 .75-.597 1.359-1.334 1.359A1.347 1.347 0 0 1 0 16.662c0-.751.597-1.36 1.334-1.36m4.363-3.145c1.085 0 1.964.896 1.964 2.002 0 1.106-.88 2.002-1.964 2.002-1.086 0-1.964-.896-1.964-2.002 0-1.106.878-2.002 1.964-2.002M3.01 6.641c.738 0 1.335.608 1.335 1.359 0 .75-.597 1.359-1.335 1.359A1.346 1.346 0 0 1 1.676 8c0-.75.597-1.359 1.334-1.359m3.98-3.757c-1.064 0-1.926.878-1.926 1.961 0 1.084.862 1.962 1.926 1.962 1.063 0 1.925-.878 1.925-1.962 0-1.083-.862-1.961-1.925-1.961m23.282 24.809c1.262-1.304 1.66-2.967.89-3.716-.77-.749-2.418-.299-3.68 1.005-1.262 1.303-1.661 2.967-.89 3.715.77.749 2.417.3 3.68-1.004M13.18.165c-1.787.198-3.157 1.233-3.06 2.314.097 1.08 1.624 1.795 3.41 1.597 1.788-.197 3.157-1.233 3.06-2.314-.097-1.08-1.624-1.795-3.41-1.597M8.286 9.257C9.15 5.08 14.5 7.238 17.504 5.599c1.076-.586 1.725-1.51 2.247-3.024.483-2.536 3.603-.71 4.917.147 1.113.727 2.002 1.673 2.57 2.933.14.556.114.983-.106 1.255-1.261 1.554-5.208-2.622-8.493.088-.826.681-1.215 1.465-1.558 2.337-.686 1.742.057 5.69-1.16 6.43-2.044 1.241-4.645.2-6.319-2.152-1.052-1.478-1.56-3.176-1.316-4.356M23.371 28.7c1.11 0 2.009.916 2.009 2.047 0 1.13-.899 2.046-2.009 2.046-1.109 0-2.008-.916-2.008-2.046s.9-2.047 2.008-2.047m-4.862 2.706c.858 0 1.554.709 1.554 1.584 0 .874-.696 1.583-1.554 1.583-.859 0-1.555-.709-1.555-1.583 0-.875.696-1.584 1.555-1.584M15.685 25.2c-1.118 0-2.025.924-2.025 2.063 0 1.14.907 2.063 2.025 2.063 1.119 0 2.025-.924 2.025-2.063 0-1.139-.906-2.063-2.025-2.063m-4.107 2.963c.806 0 1.459.665 1.459 1.486s-.653 1.486-1.459 1.486c-.805 0-1.458-.665-1.458-1.486s.653-1.486 1.458-1.486m-5.567-6.189c1.07 0 1.938.884 1.938 1.975 0 1.09-.867 1.975-1.938 1.975-1.07 0-1.938-.884-1.938-1.975 0-1.091.868-1.975 1.938-1.975m5.386-4.06c1.474 0 2.669 1.218 2.669 2.72 0 1.502-1.195 2.718-2.669 2.718s-2.67-1.216-2.67-2.719c0-1.501 1.196-2.72 2.67-2.72m-9.65 7.125c.795 0 1.44.656 1.44 1.466 0 .811-.645 1.468-1.44 1.468-.796 0-1.44-.657-1.44-1.468 0-.81.644-1.466 1.44-1.466m16.703-.8c-1.335-1.646-2.273-4.466-1.316-5.766 1.422-2.432 6.948 2.676 10.28.13 2.03-1.552 1.57-4.048 2.647-4.717 1.678-1.044 3.04 2.657 3.26 3.88.344 1.912.142 4.079-1.324 4.033-1.432-.045-1.919-2.815-4.6-.991-2.3 1.564-1.242 2.176-2.274 4.263-.82 1.184-1.923 1.596-2.991 1.547-1.08-.048-2.566-1.005-3.682-2.38m10.205-13.415c2.122-.722 3.528 3.196 4.79 2.81 1.042-.318-1.07-3.937-1.41-4.475-.344-.545-2.134-3.166-2.848-2.795-.249.13-.236.615-.267 1.172-.036.615-.129 1.318-.695 1.724-.416.297-1.087.436-2.18.261-1.903-.303-4.407-1.196-5.927-.308-1.482.865-1.794 3.566-.69 5.397.67 1.11 1.69 2.005 2.909 2.207 1.327.221 2.553-.61 3.118-1.45 1.007-1.5 1.38-3.925 3.2-4.543" mask="url(#b)"/>
            </g>
            <path fill="#1B1B1B" d="M52.057 13.414h-5.1v3.226h4.888v2.424h-4.887v3.94h5.1v2.425h-7.862v-14.44h7.861zM58.411 17.809l-4.228-6.82h3.314l2.486 4.482 2.614-4.482h3.314l-4.355 6.82 4.844 7.62h-3.315l-3.102-5.282-3.272 5.282h-3.315zM71.31 17.657h1.126c.53 0 1.21 0 1.806-.454.51-.411.765-1.061.765-1.689 0-.8-.383-1.342-.786-1.645-.574-.411-1.297-.455-1.955-.455h-.956v4.243zm1.36-6.667c1.593 0 2.698.172 3.74 1.104 1.147 1.038 1.444 2.446 1.444 3.485 0 .563-.085 2.122-1.169 3.225-.786.802-1.954 1.278-3.59 1.278H71.31v5.347h-2.763V10.99h4.122zM82.763 10.99v12.014h4.377v2.425H80V10.99zM100.314 18.22c0-2.923-1.955-5-4.717-5-2.762 0-4.717 2.077-4.717 5s1.955 4.98 4.717 4.98c2.762 0 4.717-2.057 4.717-4.98m2.847 0c0 4.395-3.102 7.534-7.564 7.534s-7.564-3.14-7.564-7.534c0-4.395 3.102-7.555 7.564-7.555s7.564 3.16 7.564 7.555M108.58 17.636h.787c.531 0 2.72-.065 2.72-2.187 0-2.143-2.168-2.165-2.677-2.165h-.83v4.352zm1.34-6.646c1.954 0 2.953.52 3.612 1.082 1.083.931 1.402 2.165 1.402 3.247 0 1.407-.553 2.642-1.658 3.399-.36.26-.87.498-1.55.628l4.42 6.083h-3.443l-3.782-5.802h-.34v5.802h-2.763V10.99h4.101z"/>
            <mask id="d" fill="#fff">
                <use xlink:href="#c"/>
            </mask>
            <path fill="#1B1B1B" d="M118.122 25.43h2.762V10.99h-2.762zM126.982 10.99v9.07c0 1.104.362 1.775.68 2.143.404.498 1.148.996 2.253.996 1.105 0 1.848-.498 2.252-.996.319-.368.68-1.039.68-2.143v-9.07h2.762v8.832c0 1.364-.213 2.75-1.062 3.854-1.02 1.364-2.805 2.078-4.632 2.078-1.827 0-3.612-.714-4.632-2.078-.85-1.104-1.063-2.49-1.063-3.854V10.99h2.762zM140.858 10.99h1.998l3.76 9.179 3.931-9.18h1.998l2.379 14.44h-2.804l-1.275-8.897-3.804 8.897h-.935l-3.633-8.897-1.445 8.897h-2.805z" mask="url(#d)"/>
        </g>
    </g>
</svg>
